<?xml version="1.0" encoding="UTF-8" standalone="no"?>
<!-- Created with Inkscape (http://www.inkscape.org/) -->

<svg
   height="25"
   viewBox="0 0 94.812035 18.312517"
   version="1.1"
   id="svg1"
   xmlns="http://www.w3.org/2000/svg"
   xmlns:svg="http://www.w3.org/2000/svg">
  <defs
     id="defs1" />
  <g
     id="layer1"
     transform="translate(-4.8652338,-2.5214846)">
    <path
       d="M 20.943548,17.098213 V 8.5474105 h 2.407508 v 8.5508025 z m -0.0166,-9.9621 V 5.2599174 h 2.440715 V 7.136113 Z m 3.503325,9.9621 3.221079,-4.267099 -3.221079,-4.2671 h 2.822595 l 2.473922,3.304097 h 1.212055 L 33.42937,8.564014 h 2.805992 l -3.204476,4.2671 3.204476,4.267099 H 33.42937 l -2.507128,-3.3207 H 29.72679 l -2.473922,3.3207 z m 15.15898,0 q -1.344884,0 -2.058834,-0.680743 -0.713951,-0.680744 -0.713951,-1.94261 0,-1.245262 0.713951,-1.926006 0.71395,-0.680743 2.058834,-0.680743 h 6.375744 v -0.398484 q 0,-1.012814 -0.99621,-1.012814 H 37.928899 V 8.5474105 h 7.670817 q 1.510918,0 2.141851,0.697347 Q 48.3725,9.925501 48.3725,11.170764 v 5.927449 z m 0.431691,-1.909402 h 5.944053 V 13.777513 H 40.02094 q -0.315467,0 -0.498105,0.199242 -0.166035,0.182639 -0.166035,0.498105 0,0.315467 0.166035,0.514709 0.182638,0.199242 0.498105,0.199242 z m 12.203557,5.64519 v -1.909403 h 5.014257 q 0.99621,0 0.99621,-1.012813 v -0.813572 h -3.65277 q -2.224869,0 -3.470132,-1.095831 -1.245263,-1.095831 -1.245263,-3.171268 0,-2.092041 1.245263,-3.1878725 1.245263,-1.095831 3.470132,-1.095831 h 6.060277 v 9.6632375 q 0,1.178848 -0.680743,1.892799 -0.680744,0.730554 -2.125248,0.730554 z m 2.357697,-5.64519 h 3.65277 v -4.731998 h -3.65277 q -1.079228,0 -1.66035,0.597726 -0.564519,0.581123 -0.564519,1.776575 0,1.178848 0.564519,1.776574 0.581122,0.581123 1.66035,0.581123 z m 12.269962,1.99242 q -2.224869,0 -3.470132,-1.095831 -1.245262,-1.112435 -1.245262,-3.254286 0,-2.158455 1.245262,-3.2542865 Q 64.627291,8.464393 66.85216,8.464393 h 3.071647 q 2.22487,0 3.470132,1.1124345 1.245263,1.0958315 1.245263,3.2542865 0,2.141851 -1.245263,3.254286 -1.245262,1.095831 -3.470132,1.095831 z m 0,-1.909403 h 3.071647 q 1.079228,0 1.643747,-0.597726 0.581123,-0.597726 0.581123,-1.842988 0,-1.261866 -0.581123,-1.859592 -0.564519,-0.597726 -1.643747,-0.597726 H 66.85216 q -1.079228,0 -1.66035,0.597726 -0.564519,0.597726 -0.564519,1.859592 0,1.245262 0.564519,1.842988 0.581122,0.597726 1.66035,0.597726 z m 9.281356,1.826385 V 8.5474105 h 7.454972 q 1.461108,0 2.125248,0.730554 0.680743,0.7139505 0.680743,1.8927995 v 5.927449 h -2.407507 v -5.64519 q 0,-0.99621 -0.99621,-0.99621 H 78.54102 v 6.6414 z m 16.38765,0.08302 q -2.224869,0 -3.470131,-1.095831 -1.245263,-1.112435 -1.245263,-3.254286 0,-2.158455 1.245263,-3.2542865 1.245262,-1.1124345 3.470131,-1.1124345 h 4.150875 q 1.461108,0 2.224869,0.697347 0.780365,0.6807435 0.780365,1.959213 0,2.60675 -3.005234,2.60675 h -6.276123 q 0.348674,1.544125 2.125248,1.544125 h 6.724418 v 1.909403 z m 0,-6.807435 q -1.71016,0 -2.108644,1.444504 h 6.143295 q 0.33207,0 0.514708,-0.199242 0.199242,-0.199242 0.199242,-0.547915 0,-0.697347 -0.71395,-0.697347 z"
       id="text7"
       aria-label="ixagone" fill="#555"/>
    <path
       d="M 17.654297,2.5214844 12.957031,7.21875 v 4.742188 L 4.8652344,3.8691406 V 20.833984 L 9.5625,16.136719 v -4.742188 l 3.6875,3.6875 1.707031,1.707031 2.697266,2.697266 z m -2,4.828125 V 14.658203 L 14.957031,13.960938 V 8.046875 Z M 6.8652344,8.6972656 7.5625,9.3945313 v 5.9140627 l -0.6972656,0.697265 z"
       id="path8" fill="#444" />
  </g>
</svg>
